<mxfile host="Electron" modified="2024-07-14T22:08:27.363Z" agent="Mozilla/5.0 (Windows NT 10.0; Win64; x64) AppleWebKit/537.36 (KHTML, like Gecko) draw.io/24.6.4 Chrome/124.0.6367.207 Electron/30.0.6 Safari/537.36" etag="xovi2GPQha4rqvarf8UI" version="24.6.4" type="device">
  <diagram name="Page-1" id="2YBvvXClWsGukQMizWep">
    <mxGraphModel dx="1751" dy="569" grid="1" gridSize="10" guides="1" tooltips="1" connect="1" arrows="1" fold="1" page="1" pageScale="1" pageWidth="850" pageHeight="1100" math="0" shadow="0">
      <root>
        <mxCell id="0" />
        <mxCell id="1" parent="0" />
        <mxCell id="DY1qOqMVfFojMZkrpDAz-1" value="" style="group" vertex="1" connectable="0" parent="1">
          <mxGeometry x="-599" y="49" width="18" height="474" as="geometry" />
        </mxCell>
        <mxCell id="DY1qOqMVfFojMZkrpDAz-2" value="" style="endArrow=none;dashed=1;html=1;rounded=0;" edge="1" parent="DY1qOqMVfFojMZkrpDAz-1">
          <mxGeometry width="50" height="50" relative="1" as="geometry">
            <mxPoint x="9" y="667" as="sourcePoint" />
            <mxPoint x="9" y="65" as="targetPoint" />
          </mxGeometry>
        </mxCell>
        <mxCell id="DY1qOqMVfFojMZkrpDAz-3" value="User" style="shape=umlActor;verticalLabelPosition=bottom;verticalAlign=top;html=1;outlineConnect=0;" vertex="1" parent="DY1qOqMVfFojMZkrpDAz-1">
          <mxGeometry width="18" height="39" as="geometry" />
        </mxCell>
        <mxCell id="vv9X04xP0O6Y5bu-idb--6" value="" style="group" parent="1" vertex="1" connectable="0">
          <mxGeometry x="-464" y="49" width="231.0046946207683" height="666" as="geometry" />
        </mxCell>
        <mxCell id="vv9X04xP0O6Y5bu-idb--7" value="React App" style="shape=umlLifeline;perimeter=lifelinePerimeter;whiteSpace=wrap;html=1;container=0;dropTarget=0;collapsible=0;recursiveResize=0;outlineConnect=0;portConstraint=eastwest;newEdgeStyle={&quot;edgeStyle&quot;:&quot;elbowEdgeStyle&quot;,&quot;elbow&quot;:&quot;vertical&quot;,&quot;curved&quot;:0,&quot;rounded&quot;:0};fontStyle=4;size=40;" parent="vv9X04xP0O6Y5bu-idb--6" vertex="1">
          <mxGeometry width="100" height="666" as="geometry" />
        </mxCell>
        <mxCell id="vv9X04xP0O6Y5bu-idb--153" value="" style="group" parent="vv9X04xP0O6Y5bu-idb--6" vertex="1" connectable="0">
          <mxGeometry x="-120" y="74" width="350.0046946207683" height="356" as="geometry" />
        </mxCell>
        <mxCell id="vv9X04xP0O6Y5bu-idb--8" value="" style="html=1;points=[];perimeter=orthogonalPerimeter;outlineConnect=0;targetShapes=umlLifeline;portConstraint=eastwest;newEdgeStyle={&quot;edgeStyle&quot;:&quot;elbowEdgeStyle&quot;,&quot;elbow&quot;:&quot;vertical&quot;,&quot;curved&quot;:0,&quot;rounded&quot;:0};fontStyle=4;container=0;" parent="vv9X04xP0O6Y5bu-idb--153" vertex="1">
          <mxGeometry x="165" width="10" height="356" as="geometry" />
        </mxCell>
        <mxCell id="vv9X04xP0O6Y5bu-idb--9" value="" style="html=1;verticalAlign=bottom;endArrow=block;edgeStyle=elbowEdgeStyle;elbow=horizontal;curved=0;rounded=0;fontStyle=4" parent="vv9X04xP0O6Y5bu-idb--153" edge="1">
          <mxGeometry relative="1" as="geometry">
            <mxPoint y="5" as="sourcePoint" />
            <Array as="points">
              <mxPoint x="112.5" y="5" />
            </Array>
            <mxPoint x="165" y="5" as="targetPoint" />
            <mxPoint as="offset" />
          </mxGeometry>
        </mxCell>
        <mxCell id="vv9X04xP0O6Y5bu-idb--10" value="" style="html=1;verticalAlign=bottom;endArrow=block;dashed=1;endSize=8;edgeStyle=elbowEdgeStyle;elbow=vertical;curved=0;rounded=0;endFill=1;fontStyle=4;" parent="vv9X04xP0O6Y5bu-idb--153" target="vv9X04xP0O6Y5bu-idb--3" edge="1">
          <mxGeometry x="-0.0945" relative="1" as="geometry">
            <mxPoint x="4" y="147" as="targetPoint" />
            <Array as="points" />
            <mxPoint x="165" y="148" as="sourcePoint" />
            <mxPoint as="offset" />
          </mxGeometry>
        </mxCell>
        <mxCell id="vv9X04xP0O6Y5bu-idb--71" value="" style="html=1;verticalAlign=bottom;endArrow=block;dashed=1;endSize=8;edgeStyle=elbowEdgeStyle;elbow=vertical;curved=0;rounded=0;endFill=1;fontStyle=4;" parent="vv9X04xP0O6Y5bu-idb--153" target="vv9X04xP0O6Y5bu-idb--8" edge="1">
          <mxGeometry x="-0.0945" relative="1" as="geometry">
            <mxPoint x="139" y="131.26999999999998" as="targetPoint" />
            <Array as="points" />
            <mxPoint x="344" y="131" as="sourcePoint" />
            <mxPoint as="offset" />
          </mxGeometry>
        </mxCell>
        <mxCell id="vv9X04xP0O6Y5bu-idb--72" value="&lt;span style=&quot;font-size: 10px; text-align: center; text-wrap: nowrap; background-color: rgb(255, 255, 255);&quot;&gt;Return not found message&lt;/span&gt;" style="text;whiteSpace=wrap;html=1;container=0;" parent="vv9X04xP0O6Y5bu-idb--153" vertex="1">
          <mxGeometry x="194.0046946207683" y="107.00433522542318" width="121" height="36" as="geometry" />
        </mxCell>
        <mxCell id="vv9X04xP0O6Y5bu-idb--118" value="" style="group" parent="vv9X04xP0O6Y5bu-idb--153" vertex="1" connectable="0">
          <mxGeometry x="174" y="307.0043352254232" width="176.0046946207683" height="36" as="geometry" />
        </mxCell>
        <mxCell id="vv9X04xP0O6Y5bu-idb--119" value="" style="html=1;verticalAlign=bottom;endArrow=block;dashed=1;endSize=8;edgeStyle=elbowEdgeStyle;elbow=vertical;curved=0;rounded=0;endFill=1;fontStyle=4;" parent="vv9X04xP0O6Y5bu-idb--118" source="vv9X04xP0O6Y5bu-idb--22" edge="1">
          <mxGeometry x="-0.0945" relative="1" as="geometry">
            <mxPoint y="24.265664774576805" as="targetPoint" />
            <Array as="points" />
            <mxPoint x="205" y="23.995664774576824" as="sourcePoint" />
            <mxPoint as="offset" />
          </mxGeometry>
        </mxCell>
        <mxCell id="vv9X04xP0O6Y5bu-idb--120" value="&lt;span style=&quot;color: rgb(0, 0, 0); font-family: Helvetica; font-size: 10px; font-style: normal; font-variant-ligatures: normal; font-variant-caps: normal; font-weight: 400; letter-spacing: normal; orphans: 2; text-align: center; text-indent: 0px; text-transform: none; widows: 2; word-spacing: 0px; -webkit-text-stroke-width: 0px; white-space: nowrap; background-color: rgb(255, 255, 255); text-decoration-thickness: initial; text-decoration-style: initial; text-decoration-color: initial; display: inline !important; float: none;&quot;&gt;Show success mesage&lt;/span&gt;" style="text;whiteSpace=wrap;html=1;container=0;" parent="vv9X04xP0O6Y5bu-idb--118" vertex="1">
          <mxGeometry x="55.004694620768305" width="121" height="36" as="geometry" />
        </mxCell>
        <mxCell id="vv9X04xP0O6Y5bu-idb--17" value="" style="html=1;verticalAlign=bottom;endArrow=block;edgeStyle=elbowEdgeStyle;elbow=horizontal;curved=0;rounded=0;fontStyle=4" parent="1" edge="1">
          <mxGeometry relative="1" as="geometry">
            <mxPoint x="-408" y="145" as="sourcePoint" />
            <Array as="points">
              <mxPoint x="-254" y="147" />
            </Array>
            <mxPoint x="-243" y="145" as="targetPoint" />
            <mxPoint as="offset" />
          </mxGeometry>
        </mxCell>
        <mxCell id="vv9X04xP0O6Y5bu-idb--19" value="CommentController" style="shape=umlLifeline;perimeter=lifelinePerimeter;whiteSpace=wrap;html=1;container=0;dropTarget=0;collapsible=0;recursiveResize=0;outlineConnect=0;portConstraint=eastwest;newEdgeStyle={&quot;edgeStyle&quot;:&quot;elbowEdgeStyle&quot;,&quot;elbow&quot;:&quot;vertical&quot;,&quot;curved&quot;:0,&quot;rounded&quot;:0};fontStyle=4" parent="1" vertex="1">
          <mxGeometry x="-80" y="49" width="120" height="688" as="geometry" />
        </mxCell>
        <mxCell id="vv9X04xP0O6Y5bu-idb--20" value="" style="html=1;points=[];perimeter=orthogonalPerimeter;outlineConnect=0;targetShapes=umlLifeline;portConstraint=eastwest;newEdgeStyle={&quot;edgeStyle&quot;:&quot;elbowEdgeStyle&quot;,&quot;elbow&quot;:&quot;vertical&quot;,&quot;curved&quot;:0,&quot;rounded&quot;:0};fontStyle=4" parent="vv9X04xP0O6Y5bu-idb--19" vertex="1">
          <mxGeometry x="55" y="74" width="10" height="336" as="geometry" />
        </mxCell>
        <mxCell id="vv9X04xP0O6Y5bu-idb--21" value="Router" style="shape=umlLifeline;perimeter=lifelinePerimeter;whiteSpace=wrap;html=1;container=0;dropTarget=0;collapsible=0;recursiveResize=0;outlineConnect=0;portConstraint=eastwest;newEdgeStyle={&quot;edgeStyle&quot;:&quot;elbowEdgeStyle&quot;,&quot;elbow&quot;:&quot;vertical&quot;,&quot;curved&quot;:0,&quot;rounded&quot;:0};fontStyle=4;size=40;" parent="1" vertex="1">
          <mxGeometry x="-296" y="50" width="120" height="642" as="geometry" />
        </mxCell>
        <mxCell id="vv9X04xP0O6Y5bu-idb--22" value="" style="html=1;points=[];perimeter=orthogonalPerimeter;outlineConnect=0;targetShapes=umlLifeline;portConstraint=eastwest;newEdgeStyle={&quot;edgeStyle&quot;:&quot;elbowEdgeStyle&quot;,&quot;elbow&quot;:&quot;vertical&quot;,&quot;curved&quot;:0,&quot;rounded&quot;:0};fontStyle=4" parent="vv9X04xP0O6Y5bu-idb--21" vertex="1">
          <mxGeometry x="55" y="73" width="10" height="357" as="geometry" />
        </mxCell>
        <mxCell id="vv9X04xP0O6Y5bu-idb--27" value="" style="html=1;verticalAlign=bottom;endArrow=block;edgeStyle=elbowEdgeStyle;elbow=horizontal;curved=0;rounded=0;fontStyle=4;entryX=0.5;entryY=0.093;entryDx=0;entryDy=0;entryPerimeter=0;" parent="1" edge="1">
          <mxGeometry relative="1" as="geometry">
            <mxPoint x="-230" y="160" as="sourcePoint" />
            <Array as="points">
              <mxPoint x="-82" y="162" />
            </Array>
            <mxPoint x="-26" y="160.014" as="targetPoint" />
            <mxPoint as="offset" />
          </mxGeometry>
        </mxCell>
        <mxCell id="vv9X04xP0O6Y5bu-idb--28" value="Route to &#39;likeOrUnlike&#39; function" style="text;whiteSpace=wrap;html=1;fontSize=11;" parent="1" vertex="1">
          <mxGeometry x="-200" y="138" width="152" height="40" as="geometry" />
        </mxCell>
        <mxCell id="vv9X04xP0O6Y5bu-idb--29" value="&lt;span style=&quot;color: rgb(0, 0, 0); font-family: Helvetica; font-size: 11px; font-style: normal; font-variant-ligatures: normal; font-variant-caps: normal; font-weight: 400; letter-spacing: normal; orphans: 2; text-align: left; text-indent: 0px; text-transform: none; widows: 2; word-spacing: 0px; -webkit-text-stroke-width: 0px; white-space: normal; background-color: rgb(251, 251, 251); text-decoration-thickness: initial; text-decoration-style: initial; text-decoration-color: initial; display: inline !important; float: none;&quot;&gt;Send PUT request&lt;/span&gt;" style="text;whiteSpace=wrap;html=1;" parent="1" vertex="1">
          <mxGeometry x="-380" y="120" width="130" height="40" as="geometry" />
        </mxCell>
        <mxCell id="vv9X04xP0O6Y5bu-idb--30" value="DB" style="shape=umlLifeline;perimeter=lifelinePerimeter;whiteSpace=wrap;html=1;container=0;dropTarget=0;collapsible=0;recursiveResize=0;outlineConnect=0;portConstraint=eastwest;newEdgeStyle={&quot;edgeStyle&quot;:&quot;elbowEdgeStyle&quot;,&quot;elbow&quot;:&quot;vertical&quot;,&quot;curved&quot;:0,&quot;rounded&quot;:0};fontStyle=4" parent="1" vertex="1">
          <mxGeometry x="136" y="50" width="120" height="688" as="geometry" />
        </mxCell>
        <mxCell id="vv9X04xP0O6Y5bu-idb--31" value="" style="html=1;points=[];perimeter=orthogonalPerimeter;outlineConnect=0;targetShapes=umlLifeline;portConstraint=eastwest;newEdgeStyle={&quot;edgeStyle&quot;:&quot;elbowEdgeStyle&quot;,&quot;elbow&quot;:&quot;vertical&quot;,&quot;curved&quot;:0,&quot;rounded&quot;:0};fontStyle=4" parent="vv9X04xP0O6Y5bu-idb--30" vertex="1">
          <mxGeometry x="55" y="74" width="10" height="346" as="geometry" />
        </mxCell>
        <mxCell id="vv9X04xP0O6Y5bu-idb--34" value="" style="html=1;verticalAlign=bottom;endArrow=block;edgeStyle=elbowEdgeStyle;elbow=horizontal;curved=0;rounded=0;fontStyle=4;entryX=0.5;entryY=0.093;entryDx=0;entryDy=0;entryPerimeter=0;" parent="1" edge="1">
          <mxGeometry relative="1" as="geometry">
            <mxPoint x="-14" y="182" as="sourcePoint" />
            <Array as="points">
              <mxPoint x="134" y="184" />
            </Array>
            <mxPoint x="190" y="182.014" as="targetPoint" />
            <mxPoint as="offset" />
          </mxGeometry>
        </mxCell>
        <mxCell id="vv9X04xP0O6Y5bu-idb--35" value="Find comment by ID" style="text;whiteSpace=wrap;html=1;fontSize=11;" parent="1" vertex="1">
          <mxGeometry x="16" y="160" width="152" height="40" as="geometry" />
        </mxCell>
        <mxCell id="vv9X04xP0O6Y5bu-idb--57" value="" style="group" parent="1" vertex="1" connectable="0">
          <mxGeometry x="-15" y="210.00433522542318" width="176.0046946207683" height="36" as="geometry" />
        </mxCell>
        <mxCell id="vv9X04xP0O6Y5bu-idb--52" value="" style="html=1;verticalAlign=bottom;endArrow=block;dashed=1;endSize=8;edgeStyle=elbowEdgeStyle;elbow=vertical;curved=0;rounded=0;endFill=1;fontStyle=4;" parent="vv9X04xP0O6Y5bu-idb--57" edge="1">
          <mxGeometry x="-0.0945" relative="1" as="geometry">
            <mxPoint y="24.265664774576805" as="targetPoint" />
            <Array as="points" />
            <mxPoint x="205" y="23.995664774576824" as="sourcePoint" />
            <mxPoint as="offset" />
          </mxGeometry>
        </mxCell>
        <mxCell id="vv9X04xP0O6Y5bu-idb--53" value="&lt;span style=&quot;color: rgb(0, 0, 0); font-family: Helvetica; font-size: 10px; font-style: normal; font-variant-ligatures: normal; font-variant-caps: normal; font-weight: 400; letter-spacing: normal; orphans: 2; text-align: center; text-indent: 0px; text-transform: none; widows: 2; word-spacing: 0px; -webkit-text-stroke-width: 0px; white-space: nowrap; background-color: rgb(255, 255, 255); text-decoration-thickness: initial; text-decoration-style: initial; text-decoration-color: initial; display: inline !important; float: none;&quot;&gt;Return nothing&lt;/span&gt;" style="text;whiteSpace=wrap;html=1;container=0;" parent="vv9X04xP0O6Y5bu-idb--57" vertex="1">
          <mxGeometry x="55.004694620768305" width="121" height="36" as="geometry" />
        </mxCell>
        <mxCell id="vv9X04xP0O6Y5bu-idb--3" value="" style="html=1;points=[];perimeter=orthogonalPerimeter;outlineConnect=0;targetShapes=umlLifeline;portConstraint=eastwest;newEdgeStyle={&quot;edgeStyle&quot;:&quot;elbowEdgeStyle&quot;,&quot;elbow&quot;:&quot;vertical&quot;,&quot;curved&quot;:0,&quot;rounded&quot;:0};fontStyle=4;container=0;" parent="1" vertex="1">
          <mxGeometry x="-595" y="123" width="10" height="357" as="geometry" />
        </mxCell>
        <mxCell id="vv9X04xP0O6Y5bu-idb--11" value="&lt;span style=&quot;color: rgb(0, 0, 0); font-family: Helvetica; font-size: 10px; font-style: normal; font-variant-ligatures: normal; font-variant-caps: normal; font-weight: 400; letter-spacing: normal; orphans: 2; text-align: center; text-indent: 0px; text-transform: none; widows: 2; word-spacing: 0px; -webkit-text-stroke-width: 0px; white-space: nowrap; background-color: rgb(255, 255, 255); text-decoration-thickness: initial; text-decoration-style: initial; text-decoration-color: initial; display: inline !important; float: none;&quot;&gt;Like/unlike comment&lt;/span&gt;" style="text;whiteSpace=wrap;html=1;container=0;" parent="1" vertex="1">
          <mxGeometry x="-556.4953053792317" y="106.00433522542318" width="121" height="36" as="geometry" />
        </mxCell>
        <mxCell id="vv9X04xP0O6Y5bu-idb--58" value="&lt;font style=&quot;font-size: 12px;&quot;&gt;Comment not found&lt;/font&gt;" style="shape=umlFrame;whiteSpace=wrap;html=1;pointerEvents=0;width=153;height=16;" parent="1" vertex="1">
          <mxGeometry x="-640" y="210" width="870" height="105" as="geometry" />
        </mxCell>
        <mxCell id="vv9X04xP0O6Y5bu-idb--59" value="" style="html=1;verticalAlign=bottom;endArrow=block;dashed=1;endSize=8;edgeStyle=elbowEdgeStyle;elbow=vertical;curved=0;rounded=0;endFill=1;fontStyle=4;" parent="1" edge="1">
          <mxGeometry x="-0.0945" relative="1" as="geometry">
            <mxPoint x="-230" y="244.26999999999998" as="targetPoint" />
            <Array as="points" />
            <mxPoint x="-25" y="244" as="sourcePoint" />
            <mxPoint as="offset" />
          </mxGeometry>
        </mxCell>
        <mxCell id="vv9X04xP0O6Y5bu-idb--60" value="&lt;span style=&quot;color: rgb(0, 0, 0); font-family: Helvetica; font-size: 10px; font-style: normal; font-variant-ligatures: normal; font-variant-caps: normal; font-weight: 400; letter-spacing: normal; orphans: 2; text-align: center; text-indent: 0px; text-transform: none; widows: 2; word-spacing: 0px; -webkit-text-stroke-width: 0px; white-space: nowrap; background-color: rgb(255, 255, 255); text-decoration-thickness: initial; text-decoration-style: initial; text-decoration-color: initial; display: inline !important; float: none;&quot;&gt;Return not found message&lt;/span&gt;" style="text;whiteSpace=wrap;html=1;container=0;" parent="1" vertex="1">
          <mxGeometry x="-174.9953053792317" y="220.00433522542318" width="121" height="36" as="geometry" />
        </mxCell>
        <mxCell id="vv9X04xP0O6Y5bu-idb--82" value="&lt;span style=&quot;color: rgb(0, 0, 0); font-family: Helvetica; font-size: 10px; font-style: normal; font-variant-ligatures: normal; font-variant-caps: normal; font-weight: 400; letter-spacing: normal; orphans: 2; text-align: center; text-indent: 0px; text-transform: none; widows: 2; word-spacing: 0px; -webkit-text-stroke-width: 0px; white-space: nowrap; background-color: rgb(255, 255, 255); text-decoration-thickness: initial; text-decoration-style: initial; text-decoration-color: initial; display: inline !important; float: none;&quot;&gt;Show not found message&lt;/span&gt;" style="text;whiteSpace=wrap;html=1;" parent="1" vertex="1">
          <mxGeometry x="-550" y="250" width="150" height="40" as="geometry" />
        </mxCell>
        <mxCell id="vv9X04xP0O6Y5bu-idb--109" value="&lt;font style=&quot;font-size: 12px;&quot;&gt;Success&lt;/font&gt;" style="shape=umlFrame;whiteSpace=wrap;html=1;pointerEvents=0;width=153;height=16;container=0;" parent="1" vertex="1">
          <mxGeometry x="-640" y="329.5" width="870" height="160.5" as="geometry" />
        </mxCell>
        <mxCell id="vv9X04xP0O6Y5bu-idb--111" value="" style="group" parent="1" vertex="1" connectable="0">
          <mxGeometry x="-10" y="340" width="176" height="36" as="geometry" />
        </mxCell>
        <mxCell id="vv9X04xP0O6Y5bu-idb--112" value="" style="html=1;verticalAlign=bottom;endArrow=block;dashed=1;endSize=8;edgeStyle=elbowEdgeStyle;elbow=vertical;curved=0;rounded=0;endFill=1;fontStyle=4;" parent="vv9X04xP0O6Y5bu-idb--111" edge="1">
          <mxGeometry x="-0.0945" relative="1" as="geometry">
            <mxPoint x="-5" y="24.265664774576805" as="targetPoint" />
            <Array as="points" />
            <mxPoint x="199.99453197961805" y="23.995664774576824" as="sourcePoint" />
            <mxPoint as="offset" />
          </mxGeometry>
        </mxCell>
        <mxCell id="vv9X04xP0O6Y5bu-idb--113" value="&lt;span style=&quot;color: rgb(0, 0, 0); font-family: Helvetica; font-size: 10px; font-style: normal; font-variant-ligatures: normal; font-variant-caps: normal; font-weight: 400; letter-spacing: normal; orphans: 2; text-align: center; text-indent: 0px; text-transform: none; widows: 2; word-spacing: 0px; -webkit-text-stroke-width: 0px; white-space: nowrap; background-color: rgb(255, 255, 255); text-decoration-thickness: initial; text-decoration-style: initial; text-decoration-color: initial; display: inline !important; float: none;&quot;&gt;Return comment&lt;/span&gt;" style="text;whiteSpace=wrap;html=1;container=0;" parent="vv9X04xP0O6Y5bu-idb--111" vertex="1">
          <mxGeometry x="55.003227465688845" width="120.99677253431115" height="36" as="geometry" />
        </mxCell>
        <mxCell id="vv9X04xP0O6Y5bu-idb--122" value="" style="group" parent="1" vertex="1" connectable="0">
          <mxGeometry x="-584" y="450" width="176" height="35" as="geometry" />
        </mxCell>
        <mxCell id="vv9X04xP0O6Y5bu-idb--123" value="" style="html=1;verticalAlign=bottom;endArrow=block;dashed=1;endSize=8;edgeStyle=elbowEdgeStyle;elbow=vertical;curved=0;rounded=0;endFill=1;fontStyle=4;" parent="vv9X04xP0O6Y5bu-idb--122" edge="1">
          <mxGeometry x="-0.0945" relative="1" as="geometry">
            <mxPoint y="20" as="targetPoint" />
            <Array as="points" />
            <mxPoint x="162.99453197961805" y="19.996387312147355" as="sourcePoint" />
            <mxPoint as="offset" />
          </mxGeometry>
        </mxCell>
        <mxCell id="vv9X04xP0O6Y5bu-idb--152" value="&lt;span style=&quot;color: rgb(0, 0, 0); font-family: Helvetica; font-size: 10px; font-style: normal; font-variant-ligatures: normal; font-variant-caps: normal; font-weight: 400; letter-spacing: normal; orphans: 2; text-align: center; text-indent: 0px; text-transform: none; widows: 2; word-spacing: 0px; -webkit-text-stroke-width: 0px; white-space: nowrap; background-color: rgb(255, 255, 255); text-decoration-thickness: initial; text-decoration-style: initial; text-decoration-color: initial; display: inline !important; float: none;&quot;&gt;Show success mesage&lt;/span&gt;" style="text;whiteSpace=wrap;html=1;" parent="vv9X04xP0O6Y5bu-idb--122" vertex="1">
          <mxGeometry x="27.5" y="-5" width="140" height="40" as="geometry" />
        </mxCell>
        <mxCell id="vv9X04xP0O6Y5bu-idb--131" value="" style="html=1;verticalAlign=bottom;endArrow=block;edgeStyle=elbowEdgeStyle;elbow=horizontal;curved=0;rounded=0;fontStyle=4;" parent="1" edge="1">
          <mxGeometry relative="1" as="geometry">
            <mxPoint x="-14" y="397" as="sourcePoint" />
            <Array as="points">
              <mxPoint x="134" y="399" />
            </Array>
            <mxPoint x="191" y="397" as="targetPoint" />
            <mxPoint as="offset" />
          </mxGeometry>
        </mxCell>
        <mxCell id="vv9X04xP0O6Y5bu-idb--132" value="Update like/unlike array" style="text;whiteSpace=wrap;html=1;fontSize=11;" parent="1" vertex="1">
          <mxGeometry x="31" y="373" width="152" height="40" as="geometry" />
        </mxCell>
        <mxCell id="vv9X04xP0O6Y5bu-idb--135" value="" style="group" parent="1" vertex="1" connectable="0">
          <mxGeometry x="-10" y="405" width="176" height="36" as="geometry" />
        </mxCell>
        <mxCell id="vv9X04xP0O6Y5bu-idb--136" value="" style="html=1;verticalAlign=bottom;endArrow=block;dashed=1;endSize=8;edgeStyle=elbowEdgeStyle;elbow=vertical;curved=0;rounded=0;endFill=1;fontStyle=4;" parent="vv9X04xP0O6Y5bu-idb--135" edge="1">
          <mxGeometry x="-0.0945" relative="1" as="geometry">
            <mxPoint x="-5" y="24.265664774576805" as="targetPoint" />
            <Array as="points" />
            <mxPoint x="199.99453197961805" y="23.995664774576824" as="sourcePoint" />
            <mxPoint as="offset" />
          </mxGeometry>
        </mxCell>
        <mxCell id="vv9X04xP0O6Y5bu-idb--137" value="&lt;span style=&quot;color: rgb(0, 0, 0); font-family: Helvetica; font-size: 10px; font-style: normal; font-variant-ligatures: normal; font-variant-caps: normal; font-weight: 400; letter-spacing: normal; orphans: 2; text-align: center; text-indent: 0px; text-transform: none; widows: 2; word-spacing: 0px; -webkit-text-stroke-width: 0px; white-space: nowrap; background-color: rgb(255, 255, 255); text-decoration-thickness: initial; text-decoration-style: initial; text-decoration-color: initial; display: inline !important; float: none;&quot;&gt;Update comment&lt;/span&gt;" style="text;whiteSpace=wrap;html=1;container=0;" parent="vv9X04xP0O6Y5bu-idb--135" vertex="1">
          <mxGeometry x="55.003227465688845" width="120.99677253431115" height="36" as="geometry" />
        </mxCell>
        <mxCell id="vv9X04xP0O6Y5bu-idb--139" value="" style="group" parent="1" vertex="1" connectable="0">
          <mxGeometry x="-230" y="420.0043352254232" width="176.0046946207683" height="36" as="geometry" />
        </mxCell>
        <mxCell id="vv9X04xP0O6Y5bu-idb--140" value="" style="html=1;verticalAlign=bottom;endArrow=block;dashed=1;endSize=8;edgeStyle=elbowEdgeStyle;elbow=vertical;curved=0;rounded=0;endFill=1;fontStyle=4;" parent="vv9X04xP0O6Y5bu-idb--139" edge="1">
          <mxGeometry x="-0.0945" relative="1" as="geometry">
            <mxPoint y="24.265664774576805" as="targetPoint" />
            <Array as="points" />
            <mxPoint x="205" y="23.995664774576824" as="sourcePoint" />
            <mxPoint as="offset" />
          </mxGeometry>
        </mxCell>
        <mxCell id="vv9X04xP0O6Y5bu-idb--141" value="&lt;span style=&quot;color: rgb(0, 0, 0); font-family: Helvetica; font-size: 10px; font-style: normal; font-variant-ligatures: normal; font-variant-caps: normal; font-weight: 400; letter-spacing: normal; orphans: 2; text-align: center; text-indent: 0px; text-transform: none; widows: 2; word-spacing: 0px; -webkit-text-stroke-width: 0px; white-space: nowrap; background-color: rgb(255, 255, 255); text-decoration-thickness: initial; text-decoration-style: initial; text-decoration-color: initial; display: inline !important; float: none;&quot;&gt;Return comment&lt;/span&gt;" style="text;whiteSpace=wrap;html=1;container=0;" parent="vv9X04xP0O6Y5bu-idb--139" vertex="1">
          <mxGeometry x="55.004694620768305" width="121" height="36" as="geometry" />
        </mxCell>
      </root>
    </mxGraphModel>
  </diagram>
</mxfile>
